<?xml version="1.0" encoding="utf-8"?>
<!-- Svg Vector Icons : http://www.onlinewebfonts.com/icon -->
<!DOCTYPE svg PUBLIC "-//W3C//DTD SVG 1.1//EN" "http://www.w3.org/Graphics/SVG/1.1/DTD/svg11.dtd">
<svg version="1.1" xmlns="http://www.w3.org/2000/svg" xmlns:xlink="http://www.w3.org/1999/xlink" x="0px" y="0px" viewBox="0 0 1000 1000" enable-background="new 0 0 1000 1000" xml:space="preserve">
<metadata> Svg Vector Icons : http://www.onlinewebfonts.com/icon </metadata>
<g><path d="M417.5,283c-11.6-11.7-39.6-19.7-39.6,2.9v428c0,22.9,28,14.7,39.6,2.9l268.1-195.7c11.6-11.7,11.6-30.7,0-42.5L417.5,283z"/><path d="M500,10C229.8,10,10,229.8,10,500c0,270.2,219.8,490,490,490c270.2,0,490-219.8,490-490C990,229.8,770.2,10,500,10z M500,968C241.9,968,32,758.1,32,500C32,242,241.9,32,500,32s468,210,468,468C968,758.1,758.1,968,500,968z"/></g>
</svg>